<svg xmlns="http://www.w3.org/2000/svg" width="54" height="54" viewBox="0 0 54 54">
  <defs>
    <style>
      .cls-1 {
        fill: #fff;
        fill-rule: evenodd;
      }
    </style>
  </defs>
  <path id="Logo" class="cls-1" d="M853.418,5825.3c0,8.48,5.994,14.31,15.12,14.31,9.017,0,15.011-5.83,15.011-14.31v-17.5a1.077,1.077,0,0,1,1.188-1.18h2.322v-6h-6.912c-2.592,0-3.672,1.14-3.672,3.67v20.74c0,5.07-3.186,7.99-7.991,7.99s-7.992-2.92-7.992-7.94v-20.79c0-2.53-1.08-3.67-3.672-3.67h-6.912v6h2.322a1.077,1.077,0,0,1,1.188,1.18v17.5Zm-20.354-32.48h54v54h-54v-54Z" transform="translate(-833.062 -5792.81)"/>
</svg>
