<svg xmlns="http://www.w3.org/2000/svg" width="54" height="54" viewBox="0 0 54 54">
  <defs>
    <style>
      .cls-1 {
        fill: #fff;
        fill-rule: evenodd;
      }
    </style>
  </defs>
  <path id="pinterest" class="cls-1" d="M1592.53,6454.5a27,27,0,0,0-10.69,51.8,23.832,23.832,0,0,1,.48-6.16l3.49-14.76a10.429,10.429,0,0,1-.87-4.29c0-4.01,2.33-7.02,5.22-7.02,2.47,0,3.66,1.86,3.66,4.07,0,2.48-1.58,6.19-2.39,9.62a4.2,4.2,0,0,0,4.28,5.22c5.13,0,8.58-6.6,8.58-14.41,0-5.94-3.99-10.39-11.27-10.39-8.22,0-13.34,6.13-13.34,12.98a7.843,7.843,0,0,0,1.79,5.32,1.3,1.3,0,0,1,.38,1.51c-0.13.5-.42,1.7-0.54,2.18a0.938,0.938,0,0,1-1.36.67c-3.79-1.54-5.55-5.69-5.55-10.35,0-7.7,6.49-16.93,19.36-16.93,10.35,0,17.16,7.49,17.16,15.52,0,10.64-5.91,18.58-14.62,18.58-2.93,0-5.68-1.59-6.62-3.38,0,0-1.58,6.24-1.91,7.45a22.217,22.217,0,0,1-2.68,5.73A27,27,0,1,0,1592.53,6454.5Z" transform="translate(-1565.53 -6454.5)"/>
</svg>
